<?xml version="1.0" encoding="UTF-8" standalone="no"?>
<!DOCTYPE svg PUBLIC "-//W3C//DTD SVG 1.1//EN" "http://www.w3.org/Graphics/SVG/1.1/DTD/svg11.dtd">
<svg width="100%" height="100%" viewBox="0 0 57 57" version="1.1" xmlns="http://www.w3.org/2000/svg" xmlns:xlink="http://www.w3.org/1999/xlink" xml:space="preserve" xmlns:serif="http://www.serif.com/" style="fill-rule:evenodd;clip-rule:evenodd;stroke-linejoin:round;stroke-miterlimit:2;">
    <path d="M55.146,51.887L41.588,37.786C45.074,33.642 46.984,28.428 46.984,23C46.984,10.318 36.666,0 23.984,0C11.302,0 0.984,10.318 0.984,23C0.984,35.682 11.302,46 23.984,46C28.745,46 33.282,44.564 37.161,41.838L50.822,56.046C51.393,56.639 52.161,56.966 52.984,56.966C53.763,56.966 54.502,56.669 55.063,56.129C56.255,54.982 56.293,53.08 55.146,51.887ZM23.984,6C33.358,6 40.984,13.626 40.984,23C40.984,32.374 33.358,40 23.984,40C14.61,40 6.984,32.374 6.984,23C6.984,13.626 14.61,6 23.984,6Z" style="fill-rule:nonzero;"/>
</svg>
